<?xml version="1.0" encoding="UTF-8"?>
<!DOCTYPE svg PUBLIC "-//W3C//DTD SVG 1.1//EN" "http://www.w3.org/Graphics/SVG/1.1/DTD/svg11.dtd">
<svg version="1.1" xmlns="http://www.w3.org/2000/svg" xmlns:xlink="http://www.w3.org/1999/xlink" x="0" y="0" width="470" height="500" viewBox="0, 0, 470, 512">
  <g id="Capa_1">
    <path d="M465.291,129.408 L241.291,1.408 C238.006,-0.469 233.995,-0.469 230.71,1.408 L6.71,129.408 C3.382,131.307 1.334,134.848 1.334,138.667 L1.334,373.334 C1.334,377.153 3.382,380.694 6.71,382.593 L230.71,510.593 C232.353,511.532 234.166,512.001 236.001,512.001 C237.836,512.001 239.649,511.532 241.292,510.593 L465.292,382.593 C468.62,380.694 470.668,377.153 470.668,373.334 L470.668,138.667 C470.667,134.848 468.619,131.307 465.291,129.408 z M449.333,367.147 L236,489.045 L22.667,367.147 L22.667,144.853 L236,22.955 L449.333,144.854 L449.333,367.147 z" fill="#FFFFFF"/>
    <path d="M21.667,144.853 L235,22.955 L448.333,144.854 L448.333,367.147 L235,489.045 L21.667,367.147 L21.667,144.853 z" fill="#8FB9DE"/>
  </g>
</svg>
