<svg height="512pt" viewBox="0 0 512 512" width="512pt" xmlns="http://www.w3.org/2000/svg" xmlns:xlink="http://www.w3.org/1999/xlink"><linearGradient id="a" gradientUnits="userSpaceOnUse" x1="0" x2="512" y1="256" y2="256"><stop offset="0" stop-color="#00f38d"/><stop offset="1" stop-color="#009eff"/></linearGradient><path d="m512 256c0 141.386719-114.613281 256-256 256s-256-114.613281-256-256 114.613281-256 256-256 256 114.613281 256 256zm0 0" fill="url(#a)"/><g fill="#fff"><path d="m207.445312 181.492188-17.34375 17.199218c-7.078124 7.078125-8.886718 17.425782-5.089843 29.140625 5.824219 17.960938 11.742187 31.835938 39.84375 59.929688 25.65625 25.648437 40.363281 31.601562 55.9375 37.902343 1.367187.558594 2.746093 1.113282 4.140625 1.6875 4.082031 1.683594 8.050781 2.539063 11.796875 2.539063 6.550781 0 12.421875-2.554687 17.457031-7.589844l17.265625-17.332031-43.746094-43.808594-21.617187 21.136719c-5.664063-4.246094-11.871094-9.765625-18.941406-16.832031-7.585938-7.585938-13.484376-14.109375-17.976563-19.894532l20.96875-21.140624zm0 0"/><path d="m121.21875 256c0-74.144531 60.039062-134.464844 133.835938-134.464844 47.355468 0 89.9375 23.769532 114.445312 63.722656h-29.078125v28.179688h77.90625v-78.535156h-28.175781v30.457031c-11.269532-16.804687-25.464844-31.226563-42.253906-42.917969-27.328126-19.027344-59.429688-29.085937-92.84375-29.085937-43.421876 0-84.164063 16.929687-114.71875 47.667969-30.5 30.675781-47.296876 71.507812-47.296876 114.976562v1.5h28.179688zm0 0"/><path d="m390.78125 254.5v1.5c0 74.144531-60.320312 134.464844-134.46875 134.464844-47.347656 0-89.933594-23.769532-114.445312-63.722656h29.710937v-28.179688h-78.539063v78.539062h28.179688v-30.460937c11.269531 16.804687 25.464844 31.226563 42.253906 42.917969 27.328125 19.027344 59.429688 29.085937 92.84375 29.085937 43.441406 0 84.285156-16.917969 115.007813-47.636719 30.71875-30.722656 47.636719-71.566406 47.636719-115.007812v-1.5zm0 0"/></g></svg>