<svg height="439pt" viewBox="-73 0 439 439.04597" width="439pt" xmlns="http://www.w3.org/2000/svg"><path d="m191.167969 84.058594c0 22.621094-18.335938 40.960937-40.957031 40.960937-22.621094 0-40.960938-18.339843-40.960938-40.960937s18.339844-40.960938 40.960938-40.960938c22.621093 0 40.957031 18.339844 40.957031 40.960938zm0 0" fill="#d7e9ff"/><path d="m150.210938 131.847656c-26.351563 0-47.789063-21.441406-47.789063-47.789062s21.4375-47.785156 47.789063-47.785156c26.347656 0 47.785156 21.4375 47.785156 47.785156s-21.4375 47.789062-47.785156 47.789062zm0-81.921875c-18.820313 0-34.132813 15.3125-34.132813 34.132813 0 18.820312 15.3125 34.132812 34.132813 34.132812 18.816406 0 34.132812-15.3125 34.132812-34.132812 0-18.820313-15.316406-34.132813-34.132812-34.132813zm0 0" fill="#0e65e5"/><path d="m97.109375 143.984375c-1.746094 0-3.492187-.667969-4.824219-2-31.9375-31.9375-31.9375-83.914063 0-115.851563 2.664063-2.667968 6.984375-2.667968 9.652344 0 2.664062 2.664063 2.664062 6.984376 0 9.652344-26.613281 26.621094-26.613281 69.925782 0 96.546875 2.664062 2.664063 2.664062 6.984375 0 9.652344-1.332031 1.335937-3.082031 2-4.828125 2zm0 0" fill="#0e65e5"/><path d="m72.976562 168.121094c-1.746093 0-3.492187-.667969-4.828124-2-21.917969-21.921875-33.992188-51.0625-33.992188-82.0625s12.074219-60.140625 33.992188-82.058594c2.667968-2.667969 6.988281-2.667969 9.652343 0 2.667969 2.664062 2.667969 6.988281 0 9.652344-19.339843 19.339844-29.992187 45.054687-29.992187 72.40625 0 27.351562 10.652344 53.066406 29.992187 72.40625 2.667969 2.667968 2.667969 6.988281 0 9.65625-1.332031 1.332031-3.078125 2-4.824219 2zm0 0" fill="#0e65e5"/><path d="m218.476562 84.058594c0 15.082031-12.226562 27.308594-27.308593 27.308594-15.078125 0-27.304688-12.226563-27.304688-27.308594 0-15.082032 12.226563-27.304688 27.304688-27.304688 15.082031 0 27.308593 12.222656 27.308593 27.304688zm0 0" fill="#2a8ee6"/><g fill="#0e65e5"><path d="m191.167969 118.191406c-18.816407 0-34.132813-15.3125-34.132813-34.132812 0-18.820313 15.316406-34.132813 34.132813-34.132813 18.820312 0 34.136719 15.3125 34.136719 34.132813 0 18.820312-15.316407 34.132812-34.136719 34.132812zm0-54.613281c-11.292969 0-20.476563 9.1875-20.476563 20.480469 0 11.292968 9.183594 20.480468 20.476563 20.480468s20.480469-9.1875 20.480469-20.480468c0-11.292969-9.1875-20.480469-20.480469-20.480469zm0 0"/><path d="m61.464844 432.21875c-1.605469 0-3.183594-.566406-4.445313-1.640625-1.90625-1.640625-2.761719-4.183594-2.226562-6.640625l41.53125-191.058594c.015625-.054687.023437-.113281.035156-.167968l18.589844-85.484376c.011719-.082031.03125-.167968.050781-.25l6.492188-29.859374c.800781-3.679688 4.4375-6.011719 8.121093-5.21875 3.679688.804687 6.019531 4.4375 5.21875 8.125l-5.5 25.308593 62.179688 39.277344c2.066406 1.308594 3.28125 3.621094 3.171875 6.070313-.105469 2.445312-1.507813 4.644531-3.683594 5.773437l-72.191406 37.3125 88.777344 39.292969c2.503906 1.105468 4.101562 3.601562 4.066406 6.332031-.035156 2.734375-1.703125 5.179687-4.234375 6.222656l-102.628907 42.132813 121.980469 27.910156c2.925781.664062 5.074219 3.171875 5.285157 6.164062.214843 2.996094-1.550782 5.78125-4.355469 6.863282l-163.78125 63.085937c-.796875.304688-1.628907.449219-2.453125.449219zm26.027344-94.425781-16.667969 76.679687 131.097656-50.5zm20.417968-93.914063-16.191406 74.464844 95.703125-39.277344zm18.335938-84.34375-13.476563 61.984375 61.378907-31.726562zm0 0"/><path d="m238.898438 432.21875c-.828126 0-1.660157-.144531-2.457032-.453125l-163.777344-63.085937c-2.804687-1.082032-4.574218-3.867188-4.359374-6.863282.214843-2.992187 2.359374-5.5 5.289062-6.164062l121.980469-27.910156-102.632813-42.132813c-2.527344-1.039063-4.195312-3.484375-4.230468-6.21875-.035157-2.734375 1.5625-5.226563 4.0625-6.335937l88.777343-39.292969-72.195312-37.3125c-2.175781-1.125-3.578125-3.324219-3.683594-5.773438-.105469-2.445312 1.105469-4.757812 3.171875-6.066406l62.183594-39.28125-5.503906-25.304687c-.804688-3.6875 1.535156-7.320313 5.222656-8.128907 3.699218-.792969 7.316406 1.539063 8.117187 5.222657l6.472657 29.753906c.035156.152344.070312.304687.097656.460937l60.132812 276.605469c.535156 2.453125-.320312 5-2.226562 6.632812-1.261719 1.082032-2.839844 1.648438-4.441406 1.648438zm-140.460938-68.246094 131.097656 50.5-16.671875-76.679687zm14.503906-84.90625 95.699219 39.28125-16.191406-74.46875zm13.269532-89.273437 61.375 31.726562-13.472657-61.984375zm0 0"/><path d="m150.210938 439.046875c-143.359376 0-143.359376-6.941406-143.359376-13.652344 0-6.714843 0-13.65625 143.359376-13.65625 143.359374 0 143.359374 6.941407 143.359374 13.65625 0 6.710938 0 13.652344-143.359374 13.652344zm132.9375-8.175781h.066406zm-132.9375-5.476563h.066406zm0 0"/><path d="m252.609375 234.246094c-3.769531 0-6.828125-3.054688-6.828125-6.828125v-27.304688c0-3.773437 3.058594-6.828125 6.828125-6.828125s6.828125 3.054688 6.828125 6.828125v27.304688c0 3.773437-3.058594 6.828125-6.828125 6.828125zm0 0"/><path d="m266.261719 220.59375h-27.304688c-3.769531 0-6.828125-3.054688-6.828125-6.828125s3.058594-6.828125 6.828125-6.828125h27.304688c3.769531 0 6.828125 3.054688 6.828125 6.828125s-3.058594 6.828125-6.828125 6.828125zm0 0"/><path d="m20.503906 329.820312c-3.769531 0-6.828125-3.054687-6.828125-6.828124v-27.304688c0-3.773438 3.058594-6.828125 6.828125-6.828125 3.769532 0 6.824219 3.054687 6.824219 6.828125v27.304688c0 3.773437-3.054687 6.828124-6.824219 6.828124zm0 0"/><path d="m34.15625 316.164062h-27.304688c-3.773437 0-6.8281245-3.050781-6.8281245-6.824218 0-3.773438 3.0546875-6.828125 6.8281245-6.828125h27.304688c3.769531 0 6.828125 3.054687 6.828125 6.828125 0 3.773437-3.058594 6.824218-6.828125 6.824218zm0 0"/></g></svg>