<?xml version="1.0" encoding="utf-8"?>
<!-- Generator: Adobe Illustrator 22.1.0, SVG Export Plug-In . SVG Version: 6.00 Build 0)  -->
<svg xmlns="http://www.w3.org/2000/svg" xmlns:xlink="http://www.w3.org/1999/xlink" version="1.1" id="Layer_1" x="0px" y="0px" viewBox="0 0 256 256" style="enable-background:new 0 0 256 256;" xml:space="preserve" width="512" height="512">
<style type="text/css">
	.st0{fill:#FFDF74;}
	.st1{fill:#FFD551;}
	.st2{fill:#F9BB32;}
	.st3{fill:#FFA730;}
	.st4{fill:#E58D23;}
	.st5{fill:#DB9C2E;}
	.st6{fill:#FFB74B;}
	.st7{fill:#BF6C0D;}
	.st8{fill:#A56021;}
	.st9{fill:#FFC34C;}
	.st10{fill:#CCC033;}
	.st11{fill:#FFF4C1;}
	.st12{fill:#FF624B;}
	.st13{fill:#FF4B34;}
	.st14{fill:#EACF32;}
	.st15{fill:#99AF17;}
	.st16{fill:#8C4C17;}
	.st17{fill:#FCE575;}
	.st18{fill:#FF9079;}
	.st19{fill:#FCF9DE;}
	.st20{fill:#FFD59A;}
	.st21{fill:#FFEACF;}
	.st22{fill:#FCDA4F;}
</style>
<g>
	<g>
		<g>
			<polygon class="st4" points="85.505,130.156 41.957,244.642 124.624,244.642 124.624,130.156    "/>
		</g>
	</g>
	<g>
		<g>
			<path class="st3" d="M116.624,220.333c-1.657,0-3-1.343-3-3v-39.589c0-1.657,1.343-3,3-3s3,1.343,3,3v39.589     C119.624,218.99,118.281,220.333,116.624,220.333z"/>
		</g>
	</g>
	<g>
		<g>
			<polygon class="st7" points="85.505,130.156 41.957,244.642 69.957,244.642 113.505,130.156    "/>
		</g>
	</g>
	<g>
		<g>
			<path class="st6" d="M107.571,20.533l-6.144,4.053C64.467,48.969,54.141,98.784,78.362,135.85l0,0     c24.221,37.066,73.818,47.348,110.778,22.964l6.144-4.053L107.571,20.533z"/>
		</g>
	</g>
	<g>
		<g>
			<path class="st3" d="M105.779,141.534L105.779,141.534c-21.898-33.511-15.552-77.439,13.178-103.577l-11.386-17.424l-6.144,4.054     C64.467,48.97,54.141,98.784,78.362,135.85l0,0c14.883,22.776,39.349,35.418,64.575,36.14     C128.234,166.114,115.117,155.824,105.779,141.534z"/>
		</g>
	</g>
	<g>
		<g>
			
				<ellipse transform="matrix(0.8373 -0.5467 0.5467 0.8373 -23.3819 96.8078)" class="st4" cx="150.983" cy="87.694" rx="22.679" ry="79.968"/>
		</g>
	</g>
	<g>
		<g>
			<path class="st17" d="M180.332,59.759l-68.182,3.992c0.882,2.036,1.824,4.112,2.827,6.224l62.052-3.634l-28.393,56.578     c1.49,1.824,2.977,3.59,4.455,5.289l31.262-62.296L180.332,59.759z"/>
		</g>
	</g>
	<g>
		<g>
			<g>
				<path class="st1" d="M115.66,66.521l66.545-3.896l-1.873-2.866l-68.182,3.992c0.882,2.036,1.824,4.112,2.827,6.224l2.165-0.127      C116.631,68.729,116.135,67.618,115.66,66.521z"/>
			</g>
		</g>
	</g>
	<g>
		<g>
			
				<ellipse transform="matrix(0.203 -0.9792 0.9792 0.203 92.7225 231.4297)" class="st12" cx="188.524" cy="58.757" rx="11.963" ry="11.91"/>
		</g>
	</g>
	<g>
		<g>
			<path class="st13" d="M186.394,66.954c-3.6-5.51-2.06-12.941,3.434-16.565c1.526-1.007,3.199-1.602,4.897-1.838     c-3.807-2.319-8.762-2.404-12.73,0.214c-5.494,3.624-7.034,11.055-3.434,16.565c2.601,3.979,7.182,5.871,11.596,5.257     C188.693,69.695,187.394,68.484,186.394,66.954z"/>
		</g>
	</g>
	<g>
		<g>
			<circle class="st3" cx="106.182" cy="81.436" r="9"/>
		</g>
	</g>
	<g>
		<g>
			<path class="st9" d="M200.556,251.699H12.957c-1.657,0-3-1.343-3-3v-22.516c0-1.657,1.343-3,3-3h187.599c1.657,0,3,1.343,3,3     v22.516C203.556,250.356,202.213,251.699,200.556,251.699z"/>
		</g>
	</g>
	<g>
		<g>
			<path class="st18" d="M197.304,38.35L197.304,38.35c-0.183,1.711,0.866,3.196,2.529,3.662c2.27,0.637,4.273,2.007,5.608,4.049     c1.335,2.041,1.788,4.426,1.462,6.76c-0.239,1.71,0.701,3.266,2.342,3.784l0,0c2.342,0.74,5.015-0.907,5.373-3.346     c0.587-4.004-0.171-8.099-2.457-11.594c-2.286-3.495-5.734-5.831-9.638-6.897C200.144,34.119,197.565,35.908,197.304,38.35z"/>
		</g>
	</g>
	<g>
		<g>
			<g>
				<path class="st12" d="M198.932,23.095l0,0.003c-0.203,1.904,1.11,3.495,3.038,3.762c6.846,0.951,13.052,4.51,16.911,10.41      c3.859,5.9,4.633,13.012,2.761,19.665c-0.527,1.874,0.404,3.714,2.23,4.291l0.003,0.001c2.169,0.685,4.648-0.68,5.278-2.906      c2.436-8.606,1.442-17.812-3.551-25.446c-4.993-7.634-13.03-12.234-21.892-13.451C201.418,19.11,199.174,20.833,198.932,23.095z      "/>
			</g>
		</g>
	</g>
	<g>
		<g>
			<path class="st13" d="M200.542,8.009l-0.001,0.005c-0.207,1.94,1.151,3.585,3.135,3.771c11.572,1.088,22.186,6.82,28.645,16.694     s7.458,21.896,3.817,32.933c-0.624,1.892,0.339,3.795,2.199,4.383l0.005,0.001c2.1,0.663,4.519-0.593,5.223-2.729     c4.307-13.066,3.123-27.295-4.523-38.984c-7.646-11.689-20.208-18.476-33.906-19.766C202.897,4.107,200.776,5.82,200.542,8.009z"/>
		</g>
	</g>
	<g>
		<g>
			<path class="st2" d="M37.957,248.699v-22.517c0-1.657,1.343-3,3-3h-28c-1.657,0-3,1.343-3,3v22.517c0,1.657,1.343,3,3,3h28     C39.301,251.699,37.957,250.356,37.957,248.699z"/>
		</g>
	</g>
	<g>
		<g>
			<circle class="st2" cx="50.959" cy="237.441" r="9"/>
		</g>
	</g>
</g>
</svg>
