<svg id="Capa_1" enable-background="new 0 0 500.735 500.735" height="512" viewBox="0 0 500.735 500.735" width="512" xmlns="http://www.w3.org/2000/svg"><circle cx="250.367" cy="255.735" fill="#08d3cf" r="245"/><path d="m368.464 103.256c-.007-.014-.013-.026-.021-.039l-117.943-81.1c-.02 0-.034 0-.054 0l-117.943 81.099c-.007.014-.013.025-.021.039v186.505c0 13.24 10.733 23.973 23.973 23.973h188.035c13.24 0 23.973-10.733 23.973-23.973v-186.504z" fill="#35528c"/><path d="m368.443 103.217-117.943-81.1c-.02 0-.034 0-.054 0l-73.475 50.523-44.468 30.577c-.007.014-.013.025-.021.039v27 159.505c0 13.24 10.733 23.973 23.973 23.973h20.59v-214.146l73.4-50.471h.054l117.942 81.099c.007.014.013.026.021.039v-27c-.006-.013-.012-.024-.019-.038z" fill="#1f3a60"/><path d="m393.222 125.331c-2.751 0-5.532-.796-7.98-2.457l-134.742-91.415c-.016-.011-.037-.011-.054 0l-134.742 91.415c-6.507 4.415-15.36 2.718-19.774-3.788-4.414-6.507-2.718-15.36 3.788-19.774l142.762-96.856c4.826-3.274 11.16-3.274 15.986 0l142.347 96.574c7.052 4.784 8.793 14.725 3.305 21.245-2.774 3.294-6.803 5.056-10.896 5.056z" fill="#0c1f35"/><g fill="#fec753"><path d="m330.189 175.646c-2.714 0-5.362-1.373-6.878-3.86-15.414-25.293-42.276-40.393-71.856-40.393s-56.442 15.1-71.856 40.393c-2.474 4.062-7.972 5.153-11.839 2.143-3.264-2.541-3.901-7.262-1.737-10.787 8.772-14.292 21.083-26.251 35.621-34.598 15.091-8.664 32.315-13.244 49.81-13.244s34.72 4.58 49.81 13.244c14.554 8.356 26.877 20.332 35.65 34.645 2.17 3.54 1.476 8.264-1.824 10.785-1.483 1.135-3.205 1.672-4.901 1.672z"/><path d="m300.16 202.206c-2.714 0-5.362-1.373-6.878-3.86-8.973-14.724-24.609-23.514-41.827-23.514-17.145 0-32.723 8.717-41.714 23.33-2.22 3.609-6.894 5.098-10.659 3.155-4.194-2.165-5.608-7.385-3.195-11.345 11.918-19.556 32.691-31.232 55.568-31.232 22.746 0 43.412 11.542 55.362 30.897 2.213 3.584 1.579 8.366-1.776 10.914-1.48 1.125-3.193 1.655-4.881 1.655z"/><path d="m270.131 228.767c-2.642 0-5.222-1.301-6.755-3.664-2.145-3.306-5.369-5.859-9.243-6.58-5.812-1.083-11.37 1.426-14.382 6.237-1.927 3.077-5.562 4.752-9.051 3.748-5.398-1.554-7.478-7.55-4.783-11.973 5.477-8.987 15.024-14.352 25.539-14.352 10.315 0 19.699 5.164 25.222 13.844 2.32 3.647 1.725 8.578-1.749 11.15-1.462 1.079-3.142 1.59-4.798 1.59z"/><circle cx="251.455" cy="247.657" r="10.057"/></g><path d="m418.916 306.344c-7.026-8.219-19.091-9.878-28.075-3.861l-69.614 46.627c-.529.355-1.152.544-1.789.544h-141.732c-1.555 0-2.98-1.051-3.274-2.578-.395-2.055 1.17-3.852 3.154-3.852h111.831c3.873 0 6.763-3.583 5.914-7.362-2.737-12.184-12.908-35.213-37.807-35.213h-41.577c-3.723 0-7.222-1.85-9.257-4.968-8.699-13.327-39.077-48.865-115.674-48.865v115.948l86.167 42.84c24.024 11.944 50.489 18.16 77.318 18.16 29.413 0 58.245-7.468 83.839-21.576 8.082-4.455 15.608-9.854 22.491-16.002l56.079-50.082c8.651-7.724 9.542-20.945 2.006-29.76z" fill="#ffd3a4"/><path d="m421.53 310.203c-1.152 2.173-2.679 4.191-4.618 5.923l-56.079 50.082c-6.536 5.837-13.633 11.032-21.273 15.324-25.895 14.546-55.176 22.254-85.057 22.254-26.83 0-53.294-6.216-77.318-18.16-10.717-5.328-17.493-16.264-17.493-28.233v-98.334c-17.11-7.102-39.547-12.243-68.673-12.243v95.97 19.978l68.673 34.143 17.493 8.697c24.024 11.944 50.489 18.16 77.318 18.16 29.88 0 59.159-7.707 85.054-22.252 7.641-4.292 14.739-9.488 21.276-15.326l56.079-50.082c7.462-6.664 9.134-17.413 4.618-25.901z" fill="#e5ac7f"/><path d="m105.574 387.275v-159.931c0-8.284-6.716-15-15-15h-81.27c-2.517 14.083-3.831 28.584-3.831 43.391 0 55.632 18.554 106.924 49.795 148.051l35.306-1.51c8.284-.001 15-6.716 15-15.001z" fill="#35528c"/><path d="m29.433 361.492c7.195 15.006 15.865 29.169 25.835 42.294l35.306-1.51c8.284 0 15-6.716 15-15v-28.804c-2.722 1.898-6.03 3.021-9.607 3.021h-66.534z" fill="#1f3a60"/></svg>