<svg height="512pt" viewBox="-25 0 511 512" width="512pt" xmlns="http://www.w3.org/2000/svg"><path d="m320.078125 57.722656v396.554688c0 31.824218-25.898437 57.722656-57.722656 57.722656h-204.132813c-31.824218 0-57.722656-25.898438-57.722656-57.722656v-396.554688c0-31.824218 25.898438-57.722656 57.722656-57.722656h204.132813c31.824219 0 57.722656 25.898438 57.722656 57.722656zm0 0" fill="#f7ecd9"/><path d="m320.078125 57.722656v396.554688c0 31.824218-25.898437 57.722656-57.722656 57.722656h-102.078125v-512h102.078125c31.824219 0 57.722656 25.898438 57.722656 57.722656zm0 0" fill="#eacd9d"/><path d="m262.355469 0h-204.132813c-31.824218 0-57.722656 25.898438-57.722656 57.722656v396.554688c0 31.824218 25.898438 57.722656 57.722656 57.722656h204.132813c31.824219 0 57.722656-25.898438 57.722656-57.722656v-396.554688c0-31.824218-25.898437-57.722656-57.722656-57.722656zm27.710937 454.277344c0 15.277344-12.433594 27.710937-27.710937 27.710937h-204.132813c-15.277344 0-27.710937-12.433593-27.710937-27.710937v-396.554688c0-15.277344 12.433593-27.710937 27.710937-27.710937h27.410156v16.066406c0 15.875 12.914063 28.789063 28.789063 28.789063h91.734375c15.875 0 28.789062-12.914063 28.789062-28.789063v-16.066406h27.410157c15.277343 0 27.710937 12.433593 27.710937 27.710937zm0 0" fill="#f9af2b"/><path d="m204.746094 439.171875c0 8.292969-6.722656 15.007813-15.007813 15.007813h-58.898437c-8.285156 0-15.007813-6.714844-15.007813-15.007813 0-8.28125 6.722657-15.003906 15.007813-15.003906h58.898437c8.285157 0 15.007813 6.722656 15.007813 15.003906zm0 0" fill="#f9af2b"/><path d="m320.078125 57.722656v396.554688c0 31.824218-25.898437 57.722656-57.722656 57.722656h-102.078125v-30.011719h102.078125c15.277343 0 27.710937-12.433593 27.710937-27.710937v-396.554688c0-15.277344-12.433594-27.710937-27.710937-27.710937h-27.410157v16.066406c0 15.875-12.914062 28.789063-28.789062 28.789063h-45.878906v-74.867188h102.078125c31.824219 0 57.722656 25.898438 57.722656 57.722656zm0 0" fill="#f48603"/><path d="m204.746094 439.171875c0 8.292969-6.722656 15.007813-15.007813 15.007813h-29.460937v-30.011719h29.460937c8.285157 0 15.007813 6.722656 15.007813 15.003906zm0 0" fill="#f48603"/><path d="m462.394531 205.714844v55.953125c0 37.742187-30.703125 68.445312-68.445312 68.445312h-132.539063l-48.269531 24.367188c-2.859375 1.679687-6.070313 2.53125-9.292969 2.53125-2.890625 0-5.800781-.691407-8.484375-2.082031-6.109375-3.179688-9.914062-9.433594-9.914062-16.316407v-132.898437c0-37.742188 30.710937-68.445313 68.445312-68.445313h140.054688c37.742187 0 68.445312 30.703125 68.445312 68.445313zm0 0" fill="#52adff"/><path d="m462.394531 205.714844v55.953125c0 37.742187-30.703125 68.445312-68.445312 68.445312h-73.867188v-192.84375h73.867188c37.742187 0 68.445312 30.703125 68.445312 68.445313zm0 0" fill="#1d78db"/><path d="m404.582031 205.894531c0 8.292969-6.722656 15.007813-15.003906 15.007813h-131.300781c-8.292969 0-15.003906-6.714844-15.003906-15.007813 0-8.28125 6.710937-15.003906 15.003906-15.003906h131.300781c8.28125 0 15.003906 6.722656 15.003906 15.003906zm0 0" fill="#fff"/><path d="m404.582031 257.144531c0 8.28125-6.722656 15.003907-15.003906 15.003907h-65.65625c-1.332031 0-2.609375-.167969-3.839844-.5-6.421875-1.6875-11.164062-7.550782-11.164062-14.503907 0-6.960937 4.742187-12.816406 11.164062-14.503906 1.230469-.332031 2.507813-.5 3.839844-.5h65.65625c8.28125 0 15.003906 6.710937 15.003906 15.003906zm0 0" fill="#fff"/><g fill="#f7ecd9"><path d="m404.582031 257.144531c0 8.28125-6.722656 15.003907-15.003906 15.003907h-65.65625c-1.332031 0-2.609375-.167969-3.839844-.5v-29.007813c1.230469-.332031 2.507813-.5 3.839844-.5h65.65625c8.28125 0 15.003906 6.710937 15.003906 15.003906zm0 0"/><path d="m389.578125 220.902344h-69.496094v-30.011719h69.496094c8.28125 0 15.003906 6.722656 15.003906 15.003906 0 8.292969-6.722656 15.007813-15.003906 15.007813zm0 0"/></g></svg>