<svg height="472pt" viewBox="-56 0 472 472" width="472pt" xmlns="http://www.w3.org/2000/svg"><path d="m216 72c0-17.671875-14.328125-32-32-32s-32 14.328125-32 32h-152v400h360v-400zm0 0" fill="#f98c96"/><path d="m176 0h16v72h-16zm0 0" fill="#7d8d9c"/><g fill="#fff"><path d="m192 400h-80v-128h80zm-64-16h48v-96h-48zm0 0"/><path d="m96 400h-72v-16h56v-48h-56v-64h72v16h-56v32h56zm0 0"/><path d="m218.347656 378.34375 96-96.003906 11.316406 11.3125-96.003906 96.003906zm0 0"/><path d="m240 328c-13.253906 0-24-10.746094-24-24s10.746094-24 24-24 24 10.746094 24 24-10.746094 24-24 24zm0-32c-4.417969 0-8 3.582031-8 8s3.582031 8 8 8 8-3.582031 8-8-3.582031-8-8-8zm0 0"/><path d="m304 392c-13.253906 0-24-10.746094-24-24s10.746094-24 24-24 24 10.746094 24 24-10.746094 24-24 24zm0-32c-4.417969 0-8 3.582031-8 8s3.582031 8 8 8 8-3.582031 8-8-3.582031-8-8-8zm0 0"/></g><path d="m24 160v40c0 4.417969 3.582031 8 8 8h40v24h-48v16h56c4.417969 0 8-3.582031 8-8v-40c0-4.417969-3.582031-8-8-8h-40v-24h48v-16h-56c-4.417969 0-8 3.582031-8 8zm0 0" fill="#dd3e46"/><path d="m165.65625 154.34375c-1.5-1.5-3.535156-2.34375-5.65625-2.34375h-32c-2.121094 0-4.15625.84375-5.65625 2.34375l-16 16c-1.5 1.5-2.34375 3.535156-2.34375 5.65625v72h16v-32h48v32h16v-72c0-2.121094-.84375-4.15625-2.34375-5.65625zm-45.65625 45.65625v-20.6875l11.3125-11.3125h25.375l11.3125 11.3125v20.6875zm0 0" fill="#dd3e46"/><path d="m216 152h-16v88c0 4.417969 3.582031 8 8 8h56v-16h-48zm0 0" fill="#dd3e46"/><path d="m336 168v-16h-48c-4.417969 0-8 3.582031-8 8v80c0 4.417969 3.582031 8 8 8h48v-16h-40v-24h40v-16h-40v-24zm0 0" fill="#dd3e46"/><path d="m24 96h16v16h-16zm0 0" fill="#cc4a5a"/><path d="m56 96h16v16h-16zm0 0" fill="#cc4a5a"/><path d="m64 448h-40v-32h16v16h24zm0 0" fill="#cc4a5a"/><path d="m336 136h-16v-24h-24v-16h40zm0 0" fill="#cc4a5a"/><path d="m320 432h16v16h-16zm0 0" fill="#cc4a5a"/></svg>