<svg height="496pt" viewBox="0 0 496 496" width="496pt" xmlns="http://www.w3.org/2000/svg"><path d="m482.34375 263.03125-66.207031-66.207031c-7.730469 2-15.785157 3.175781-24.136719 3.175781-18.414062 0-35.550781-5.273438-50.167969-14.265625l.199219.226563-46.03125 46.039062-144-144 48-48 105.375 105.375.21875.234375c-6.089844-12.601563-9.59375-26.679687-9.59375-41.609375 0-8.351562 1.175781-16.40625 3.175781-24.128906l-66.207031-66.214844c-8.808594-8.808594-20.511719-13.65625-32.96875-13.65625s-24.167969 4.847656-32.96875 13.65625l-153.375 153.375c-8.679688 8.679688-13.65625 20.695312-13.65625 32.96875s4.976562 24.289062 13.65625 32.96875l249.375 249.375c8.800781 8.808594 20.511719 13.65625 32.96875 13.65625s24.160156-4.847656 32.96875-13.65625l153.375-153.375c8.679688-8.679688 13.65625-20.695312 13.65625-32.96875s-4.976562-24.289062-13.65625-32.96875zm-186.34375 192.96875-120-120 56-56 120 120zm136-136c-13.257812 0-24-10.742188-24-24s10.742188-24 24-24 24 10.742188 24 24-10.742188 24-24 24zm0 0" fill="#f0bc5e"/><path d="m392 0c-57.34375 0-104 46.65625-104 104 0 4.65625.414062 9.199219 1.007812 13.695312l-89.007812-89.007812-59.3125 59.3125 155.3125 155.3125 47.425781-47.425781c14.511719 7.707031 31.03125 12.113281 48.574219 12.113281 57.34375 0 104-46.65625 104-104s-46.65625-104-104-104zm-96 220.6875-132.6875-132.6875 36.6875-36.6875 99.03125 99.03125c7.257812 14.488281 17.769531 27.023438 30.617188 36.6875zm96-28.6875c-48.519531 0-88-39.480469-88-88s39.480469-88 88-88 88 39.480469 88 88-39.480469 88-88 88zm0 0"/><path d="m434.34375 50.34375-10.34375 10.34375-16-16-24 24c-5.160156 5.152344-8 12.007812-8 19.3125 0 7.289062 2.839844 14.152344 8 19.3125l4.679688 4.6875c2.144531 2.144531 3.320312 4.976562 3.320312 8s-1.175781 5.855469-3.3125 8l-12.6875 12.6875-12.679688-12.6875c-2.144531-2.144531-3.320312-4.976562-3.320312-8 0-2.984375 1.207031-5.894531 3.3125-8l10.34375-10.34375-11.3125-11.3125-10.34375 10.34375c-5.160156 5.152344-8 12.007812-8 19.3125 0 5.703125 1.785156 11.105469 5.015625 15.671875l-10.671875 10.671875 11.3125 11.3125 10.34375-10.34375 16 16 24-24c5.160156-5.167969 8-12.023438 8-19.3125s-2.839844-14.152344-8-19.3125l-4.679688-4.6875c-2.144531-2.144531-3.320312-4.976562-3.320312-8 0-2.984375 1.207031-5.894531 3.3125-8l12.6875-12.6875 12.679688 12.6875c2.144531 2.144531 3.320312 4.976562 3.320312 8s-1.175781 5.855469-3.3125 8l-10.34375 10.34375 11.3125 11.3125 10.34375-10.34375c5.160156-5.167969 8-12.023438 8-19.3125 0-5.703125-1.785156-11.105469-5.007812-15.671875l10.664062-10.664063zm0 0"/><path d="m440 144c0 4.417969-3.582031 8-8 8s-8-3.582031-8-8 3.582031-8 8-8 8 3.582031 8 8zm0 0"/><path d="m360 64c0 4.417969-3.582031 8-8 8s-8-3.582031-8-8 3.582031-8 8-8 8 3.582031 8 8zm0 0"/><path d="m164.6875 336 131.3125 131.3125 67.3125-67.3125-131.3125-131.3125zm67.3125-44.6875 12.6875 12.6875-44.6875 44.6875-12.6875-12.6875zm16 105.375-12.6875-12.6875 44.6875-44.6875 12.6875 12.6875zm56-33.375 12.6875 12.6875-44.6875 44.6875-12.6875-12.6875zm-80 9.375-12.6875-12.6875 44.6875-44.6875 12.6875 12.6875zm72 72-12.6875-12.6875 44.6875-44.6875 12.6875 12.6875zm0 0"/><path d="m26.34375 202.339844 32-32 11.316406 11.3125-32.003906 32zm0 0"/><path d="m50.34375 226.339844 32-32 11.3125 11.3125-32 32zm0 0"/><path d="m74.34375 250.339844 32-32 11.3125 11.3125-32 32zm0 0"/><path d="m98.34375 274.339844 32-32 11.3125 11.3125-32 32zm0 0"/><path d="m114.34375 109.660156 11.3125-11.316406 96 96.003906-11.3125 11.3125zm0 0"/><path d="m90.34375 133.660156 11.3125-11.316406 96 96.003906-11.3125 11.3125zm0 0"/><path d="m432 264c-17.648438 0-32 14.351562-32 32s14.351562 32 32 32 32-14.351562 32-32-14.351562-32-32-32zm0 48c-8.824219 0-16-7.175781-16-16s7.175781-16 16-16 16 7.175781 16 16-7.175781 16-16 16zm0 0"/><path d="m346.335938 213.65625 11.316406-11.3125 47.996094 47.996094-11.3125 11.3125zm0 0"/><path d="m322.335938 237.65625 11.316406-11.3125 47.996094 47.996094-11.3125 11.3125zm0 0"/><path d="m298.339844 261.660156 11.316406-11.3125 104 104-11.316406 11.3125zm0 0"/><path d="m274.339844 285.660156 11.316406-11.3125 104 104-11.316406 11.3125zm0 0"/></svg>